<svg data-v-0dd9719b="" version="1.0" xmlns="http://www.w3.org/2000/svg" xmlns:xlink="http://www.w3.org/1999/xlink" width="100%" height="100%" viewBox="0 0 340.000000 250.000000" preserveAspectRatio="xMidYMid meet" color-interpolation-filters="sRGB" style="margin: auto;"> <rect data-v-0dd9719b="" x="0" y="0" width="100%" height="100%" fill="#030f2b" fill-opacity="1" class="background"></rect> <rect data-v-0dd9719b="" x="0" y="0" width="100%" height="100%" fill="url(#watermark)" fill-opacity="1" class="watermarklayer"></rect> <g data-v-0dd9719b="" fill="#ffffff" class="icon-text-wrapper icon-svg-group iconsvg" transform="translate(79.39500427246094,70.89453506469727)"><g class="iconsvg-imagesvg" transform="translate(60.60499572753906,0)" mask="url(#39989e9a-d659-47d0-8f10-d684265d4d86)"><g><rect fill="#ffffff" fill-opacity="0" stroke-width="2" x="0" y="0" width="60" height="60.34092623321768" class="image-rect"></rect> <svg filter="url(#colors1266700512)" x="0" y="0" width="60" height="60.34092623321768" filtersec="colorsf6287268089" class="image-svg-svg primary" style="overflow: visible;"><svg xmlns="http://www.w3.org/2000/svg" xmlns:xlink="http://www.w3.org/1999/xlink" version="1.1" x="0px" y="0px" viewBox="6 5 88 88.5" enable-background="new 0 0 100 100" xml:space="preserve"><path d="M80.096,44.061c-2.242-0.221-4.575-0.406-7.076-0.406c-41.551,0-41.82,26.3-53.838,31.519C28.852,35.448,87.875,22.684,94,5  C77.882,18.782,57.159,22.046,35.521,34.012C4.627,51.289,12.346,84.268,6,89.43c2.777,2.834,8.652,4.07,17.333,4.07  c25.716,0,29.253-16,52.537-22.315C52.989,71.504,45.615,82.42,29.306,85.492C44.075,76.684,43.629,48.662,80.096,44.061z"></path><path d="M46.763,73.738c11.708-10.317,30.206-8.507,44.123-22.305c-2.928-0.068-5.862-0.28-8.802-0.28  C67.574,51.154,52.152,61.279,46.763,73.738z"></path><path d="M51.494,43.676C66.536,39.87,86.041,39.436,94,19.845C82.025,28.606,68.825,25.299,51.494,43.676z"></path></svg></svg> <defs><filter id="colors1266700512"><feColorMatrix type="matrix" values="0 0 0 0 0.4296875  0 0 0 0 0.26953125  0 0 0 0 0.8828125  0 0 0 1 0" class="icon-fecolormatrix"></feColorMatrix></filter> <filter id="colorsf6287268089"><feColorMatrix type="matrix" values="0 0 0 0 0.99609375  0 0 0 0 0.99609375  0 0 0 0 0.99609375  0 0 0 1 0" class="icon-fecolormatrix"></feColorMatrix></filter> <filter id="colorsb673853838"><feColorMatrix type="matrix" values="0 0 0 0 0  0 0 0 0 0  0 0 0 0 0  0 0 0 1 0" class="icon-fecolormatrix"></feColorMatrix></filter></defs></g><rect v-gra="id" width="72" height="72.34092712402344" transform="translate(-6, -6)" style="pointer-events:none;" fill="url(#Q49_yxkMhcuMZpOA8bCcr)"></rect></g> <g transform="translate(0,67.34092712402344)"><g data-gra="path-name" fill-rule="" class="tp-name iconsvg-namesvg"><g transform="scale(1)"><g><path d="M5.84 0L3.8-30.9 15.67-30.9 16.49-9.83 24.62-30.9 34.25-30.9 35.52-9.83 43.69-30.9 48.8-30.9 36.78 0 25.84 0 24.81-17.47 17.52 0 5.84 0ZM60.55-20.92L56.03 0 46.15 0 50.58-20.92 60.55-20.92ZM61.82-27.3L61.82-27.3Q61.82-26.18 61.36-25.35 60.89-24.52 60.14-23.94 59.39-23.35 58.41-23.06 57.44-22.77 56.42-22.77L56.42-22.77Q54.47-22.77 53.16-23.69 51.84-24.62 51.84-26.61L51.84-26.61Q51.84-27.68 52.28-28.54 52.72-29.39 53.47-29.95 54.23-30.51 55.23-30.8 56.22-31.09 57.29-31.09L57.29-31.09Q59.19-31.09 60.5-30.17 61.82-29.24 61.82-27.3ZM74.64-17.81L74.93-17.81Q75.96-18.78 77.22-19.61L77.22-19.61Q78.34-20.29 79.85-20.87 81.36-21.46 83.2-21.46L83.2-21.46Q85.73-21.46 87.39-20.17 89.04-18.88 89.04-16.64L89.04-16.64Q89.04-16.01 88.9-15.11 88.75-14.21 88.56-13.23 88.36-12.26 88.14-11.26 87.92-10.27 87.78-9.49L87.78-9.49 85.73 0 75.86 0 78.53-12.7Q78.63-13.33 78.78-13.99 78.92-14.65 78.92-15.18L78.92-15.18Q78.92-15.91 78.56-16.37 78.19-16.83 77.46-16.83L77.46-16.83Q76.59-16.83 75.79-16.2 74.98-15.57 74.54-15.13L74.54-15.13 71.33 0 61.41 0 65.84-20.92 73.77-20.92 74.64-17.81ZM109.07-17.76L111.26-20.92 119.14-20.92 115.15-1.99Q114.71 0.19 113.69 2.04 112.67 3.89 110.84 5.25 109.02 6.62 106.27 7.4 103.52 8.17 99.58 8.17L99.58 8.17Q98.85 8.17 97.83 8.15 96.81 8.13 95.74 8.1 94.67 8.08 93.69 8.03 92.72 7.98 92.14 7.93L92.14 7.93 93.06 4.43Q94.62 4.67 96.25 4.7 97.88 4.72 99.04 4.72L99.04 4.72Q100.5 4.72 101.5 4.45 102.5 4.18 103.16 3.6 103.81 3.02 104.23 2.04 104.64 1.07 104.88-0.34L104.88-0.34 105.47-3.5 105.13-3.5Q104.83-3.07 104.28-2.46 103.72-1.85 102.84-1.29 101.96-0.73 100.77-0.36 99.58 0 98.07 0L98.07 0Q96.37 0 95.18-0.51 93.98-1.02 93.25-1.92 92.52-2.82 92.18-4.06 91.84-5.3 91.84-6.76L91.84-6.76Q91.84-7.4 91.94-8.71 92.04-10.02 92.4-11.68 92.77-13.33 93.47-15.06 94.18-16.79 95.37-18.2 96.56-19.61 98.34-20.53 100.12-21.46 102.65-21.46L102.65-21.46Q103.42-21.46 104.35-21.31 105.27-21.16 106.15-20.78 107.02-20.39 107.71-19.66 108.39-18.93 108.78-17.76L108.78-17.76 109.07-17.76ZM105.81-16.69L105.81-16.69Q104.64-16.69 103.86-15.45 103.08-14.21 102.6-12.55 102.11-10.9 101.89-9.27 101.67-7.64 101.67-6.86L101.67-6.86Q101.67-5.89 101.99-5.23 102.3-4.57 103.13-4.57L103.13-4.57Q103.62-4.57 104.08-4.82 104.54-5.06 104.96-5.38 105.37-5.69 105.69-6.03 106-6.37 106.15-6.57L106.15-6.57 107.95-15.08Q107.56-15.62 107.05-16.15 106.54-16.69 105.81-16.69Z" transform="translate(-3.799999952316284, 32.70000076293945)"></path></g> <!----> <!----> <!----> <!----> <!----> <!----> <g data-gra="path-name-1" fill="#FFFFFF" transform="translate(118.33999633789062,0)"><g transform="scale(1)"><path d="M16.4-32.7L9.44 0-0.49 0 6.42-32.7 16.4-32.7ZM39.53-9.78L25.86-9.78Q25.67-8.71 25.6-7.74 25.52-6.76 25.52-5.98L25.52-5.98Q25.52-5.55 25.57-5.01 25.62-4.48 25.79-4.01 25.96-3.55 26.28-3.24 26.59-2.92 27.18-2.92L27.18-2.92Q27.61-2.92 28.17-3.21 28.73-3.5 29.29-4.04 29.85-4.57 30.36-5.35 30.87-6.13 31.17-7.1L31.17-7.1 39.15-7.1 37.88-1.9Q36.91-1.27 35.64-0.83 34.38-0.39 32.97-0.12 31.56 0.15 30.1 0.27 28.64 0.39 27.32 0.39L27.32 0.39Q24.89 0.39 22.8-0.05 20.71-0.49 19.15-1.56 17.59-2.63 16.69-4.4 15.79-6.18 15.79-8.81L15.79-8.81Q15.79-11.19 16.55-13.48 17.3-15.76 19.08-17.54 20.85-19.32 23.84-20.39 26.84-21.46 31.31-21.46L31.31-21.46Q36.18-21.46 38.63-19.95 41.09-18.44 41.09-15.23L41.09-15.23Q41.09-13.92 40.7-12.38 40.31-10.85 39.53-9.78L39.53-9.78ZM32.33-15.57L32.33-15.57Q32.33-17.08 31.85-17.61 31.36-18.15 30.68-18.15L30.68-18.15Q29.9-18.15 29.24-17.64 28.59-17.13 28.05-16.28 27.52-15.42 27.08-14.33 26.64-13.23 26.35-12.02L26.35-12.02 31.9-12.02Q31.99-12.6 32.09-13.23L32.09-13.23Q32.19-13.77 32.26-14.4 32.33-15.03 32.33-15.57ZM44.18-17.66L44.86-20.92Q46.67-21.31 48.03-21.8 49.39-22.28 50.53-23.01 51.68-23.74 52.72-24.81 53.77-25.88 54.99-27.44L54.99-27.44 60-27.44 58.59-20.92 62.38-20.92 61.75-17.66 57.9-17.66 55.91-8.17Q55.67-7.05 55.52-6.18 55.37-5.3 55.37-4.82L55.37-4.82Q55.37-3.84 56.08-3.6 56.79-3.36 58.73-3.36L58.73-3.36 58 0Q57.66 0.1 56.96 0.15 56.25 0.19 55.4 0.27 54.55 0.34 53.65 0.36 52.75 0.39 52.07 0.39L52.07 0.39Q50.85 0.39 49.68 0.22 48.51 0.05 47.59-0.46 46.67-0.97 46.11-1.95 45.55-2.92 45.55-4.57L45.55-4.57Q45.55-5.16 45.62-6.03 45.69-6.91 45.94-7.98L45.94-7.98 47.98-17.66 44.18-17.66Z" transform="translate(0.49000000953674316, 32.70000076293945)"></path></g></g></g></g> <!----></g></g><defs v-gra="od"></defs><defs v-gra="id"><filter id="fcda3084-41ac-410d-85c0-22a244a4e525" filterUnits="userSpaceOnUse"><feColorMatrix type="matrix" values="0 0 0 0 0.99609375  0 0 0 0 0.99609375  0 0 0 0 0.99609375  0 0 0 1 0"></feColorMatrix></filter><linearGradient x1="0" y1="1" x2="0" y2="0" id="Q49_yxkMhcuMZpOA8bCcr"><stop offset="0%" stop-color="#00c5fb"></stop><stop offset="100%" stop-color="#175bea"></stop></linearGradient><filter id="42443b3f1de60f6b6fd3b6a9844b4764" filterUnits="objectBoundingBox"><feColorMatrix type="matrix" values="0 0 0 0 0.99609375  0 0 0 0 0.99609375  0 0 0 0 0.99609375  0 0 0 1 0"></feColorMatrix></filter></defs><mask v-gra="im" id="39989e9a-d659-47d0-8f10-d684265d4d86"><g class="iconsvg-imagesvg" filter="url(#fcda3084-41ac-410d-85c0-22a244a4e525)"><g><rect fill="#ffffff" fill-opacity="0" stroke-width="2" x="0" y="0" width="60" height="60.34092623321768" class="image-rect"></rect> <svg x="0" y="0" width="60" height="60.34092623321768" filtersec="colorsf6287268089" class="image-svg-svg primary" style="overflow: visible;"><svg xmlns="http://www.w3.org/2000/svg" xmlns:xlink="http://www.w3.org/1999/xlink" version="1.1" x="0px" y="0px" viewBox="6 5 88 88.5" enable-background="new 0 0 100 100" xml:space="preserve"><path d="M80.096,44.061c-2.242-0.221-4.575-0.406-7.076-0.406c-41.551,0-41.82,26.3-53.838,31.519C28.852,35.448,87.875,22.684,94,5  C77.882,18.782,57.159,22.046,35.521,34.012C4.627,51.289,12.346,84.268,6,89.43c2.777,2.834,8.652,4.07,17.333,4.07  c25.716,0,29.253-16,52.537-22.315C52.989,71.504,45.615,82.42,29.306,85.492C44.075,76.684,43.629,48.662,80.096,44.061z"></path><path d="M46.763,73.738c11.708-10.317,30.206-8.507,44.123-22.305c-2.928-0.068-5.862-0.28-8.802-0.28  C67.574,51.154,52.152,61.279,46.763,73.738z"></path><path d="M51.494,43.676C66.536,39.87,86.041,39.436,94,19.845C82.025,28.606,68.825,25.299,51.494,43.676z"></path></svg></svg> <defs><filter id="colors1266700512"><feColorMatrix type="matrix" values="0 0 0 0 0.4296875  0 0 0 0 0.26953125  0 0 0 0 0.8828125  0 0 0 1 0" class="icon-fecolormatrix"></feColorMatrix></filter> <filter id="colorsf6287268089"><feColorMatrix type="matrix" values="0 0 0 0 0.99609375  0 0 0 0 0.99609375  0 0 0 0 0.99609375  0 0 0 1 0" class="icon-fecolormatrix"></feColorMatrix></filter> <filter id="colorsb673853838"><feColorMatrix type="matrix" values="0 0 0 0 0  0 0 0 0 0  0 0 0 0 0  0 0 0 1 0" class="icon-fecolormatrix"></feColorMatrix></filter></defs></g></g></mask></svg>